<?xml version="1.0" standalone="no"?>
<!DOCTYPE svg PUBLIC "-//W3C//DTD SVG 20010904//EN"
 "http://www.w3.org/TR/2001/REC-SVG-20010904/DTD/svg10.dtd">
<svg version="1.0" xmlns="http://www.w3.org/2000/svg"
 width="246.000000pt" height="147.000000pt" viewBox="0 0 246.000000 147.000000"
 preserveAspectRatio="xMidYMid meet">

<g transform="translate(0.000000,147.000000) scale(0.100000,-0.100000)"
fill="#000000" stroke="none">
<path d="M110 705 l0 -655 1115 0 1115 0 0 655 0 655 -1115 0 -1115 0 0 -655z
m2130 570 l-74 -75 -941 0 -941 0 -74 75 -74 75 1089 0 1089 0 -74 -75z
m-1970 -570 l0 -491 -75 -74 -75 -74 0 639 0 639 75 -74 75 -74 0 -491z m1405
365 c0 -22 -5 -25 -41 -28 -27 -2 -45 2 -54 13 -21 25 5 47 54 43 36 -3 41 -6
41 -28z m-275 -10 c0 -5 -22 -10 -50 -10 -47 0 -50 -2 -50 -25 0 -24 3 -25 55
-25 30 0 55 -4 55 -10 0 -6 -27 -10 -60 -10 l-61 0 7 -90 7 -90 -67 0 -66 0 0
135 0 135 115 0 c70 0 115 -4 115 -10z m140 -125 l0 -135 -55 0 -55 0 0 135 0
135 55 0 55 0 0 -135z m-960 75 c0 -7 6 -7 19 0 27 14 104 13 119 -2 9 -9 18
-9 37 0 38 17 105 15 127 -5 15 -13 18 -32 18 -110 l0 -93 -55 0 -55 0 0 100
c0 55 -3 100 -6 100 -3 0 -14 -5 -25 -10 -17 -9 -19 -22 -19 -100 l0 -90 -55
0 -55 0 0 100 c0 99 0 99 -22 91 -21 -8 -23 -15 -26 -100 l-3 -91 -54 0 -53 0
0 110 1 110 54 0 c30 0 53 -5 53 -10z m469 -30 c12 -22 26 -40 30 -40 5 0 20
18 35 40 24 36 47 52 46 33 -1 -5 -34 -53 -74 -108 -62 -87 -77 -100 -104
-103 -41 -4 -42 13 -2 22 17 3 30 11 30 17 0 6 -25 47 -55 90 -30 43 -55 81
-55 84 0 3 28 5 63 5 l63 0 23 -40z m631 -70 l0 -110 -55 0 -55 0 0 110 0 110
55 0 55 0 0 -110z m179 73 l24 -37 33 37 c32 34 54 47 54 30 0 -4 -16 -24 -37
-45 l-36 -37 26 -38 c14 -21 36 -50 47 -65 l22 -28 -66 0 c-64 0 -65 0 -93 40
-15 22 -31 40 -34 40 -3 0 -20 -18 -38 -40 -17 -22 -39 -40 -49 -40 -11 0 -3
13 26 43 23 23 42 49 42 56 0 8 -18 38 -40 68 l-41 53 68 0 c67 0 68 -1 92
-37z m-339 -378 c20 -24 -5 -45 -52 -45 -25 0 -41 5 -44 15 -12 29 4 45 44 45
23 0 45 -6 52 -15z m-792 -77 c9 -8 20 -8 38 1 34 15 96 14 120 -3 16 -12 20
-29 22 -110 l4 -96 -56 0 -56 0 0 93 c0 52 -3 97 -6 100 -4 3 -15 2 -25 -4
-16 -8 -19 -22 -19 -99 l0 -90 -55 0 -55 0 0 94 c0 52 -4 97 -9 100 -4 3 -16
0 -26 -7 -14 -11 -17 -28 -17 -100 l1 -87 -54 0 -55 0 0 109 0 110 118 -1 c67
0 122 -4 130 -10z m392 -17 c52 -51 52 -111 0 -162 -23 -24 -37 -29 -75 -29
-40 0 -52 5 -81 34 -28 28 -34 42 -34 76 0 34 6 48 34 76 29 29 41 34 81 34
38 0 52 -5 75 -29z m175 -21 c16 -27 32 -50 35 -50 3 0 18 23 33 50 25 44 47
64 47 43 0 -8 -121 -213 -126 -213 -5 0 -144 208 -144 215 0 3 28 5 63 5 l63
0 29 -50z m235 -60 l0 -110 -55 0 -55 0 0 110 0 110 55 0 55 0 0 -110z m193
99 c31 -16 57 -50 57 -76 0 -22 -4 -23 -66 -23 l-65 0 3 -47 c3 -45 5 -48 28
-45 14 1 37 11 52 22 31 23 50 26 42 7 -17 -45 -131 -63 -177 -27 -82 65 -38
200 65 200 22 0 49 -5 61 -11z m233 -6 c18 -19 3 -32 -19 -15 -21 16 -46 22
-52 12 -3 -6 14 -31 38 -57 59 -64 65 -86 33 -118 -20 -20 -35 -25 -74 -25
-26 0 -57 6 -68 14 -29 22 -11 28 31 11 20 -9 39 -14 42 -11 3 3 -15 29 -41
58 -53 61 -62 106 -24 132 31 22 112 21 134 -1z"/>
<path d="M1040 431 c0 -56 3 -101 6 -101 3 0 21 7 39 15 34 17 55 50 55 90 0
29 -45 81 -77 90 -23 6 -23 5 -23 -94z"/>
<path d="M1657 524 c-4 -4 -7 -25 -7 -46 0 -32 3 -38 21 -38 18 0 20 5 17 42
-3 39 -16 57 -31 42z"/>
</g>
</svg>
